<svg viewBox="-50 -10 100 70" xmlns="http://www.w3.org/2000/svg">
  <line x1="-50" y1="50" x2="50" y2="50" stroke="#ddd" stroke-width="0.3"/>
  <line x1="0" y1="60" x2="0" y2="0" stroke="#ddd" stroke-width="0.3"/>

  <polygon points="-40,50 40,50 0,10" fill="none" stroke="black" stroke-width="0.4" />
  <text x="-46" y="54" font-size="4" font-weight="bold">A</text>
  <text x="42" y="54" font-size="4" font-weight="bold">B</text>
  <text x="1" y="8" font-size="4" font-weight="bold">C</text>

  <line x1="-40" y1="50" x2="0" y2="20" stroke="#FFD700" stroke-width="0.4" stroke-dasharray="2"/>
  <line x1="40" y1="50" x2="0" y2="20" stroke="#FFD700" stroke-width="0.4" stroke-dasharray="2"/>
  <circle cx="0" cy="20" r="1" fill="#FFD700" />
  <text x="2" y="22" font-size="3" fill="#B8860B">P1(0,3)</text>

  <line x1="-40" y1="50" x2="-10" y2="40" stroke="#32CD32" stroke-width="0.4" stroke-dasharray="2"/>
  <line x1="0" y1="10" x2="-10" y2="40" stroke="#32CD32" stroke-width="0.4" stroke-dasharray="2"/>
  <circle cx="-10" cy="40" r="1" fill="#32CD32" />
  <text x="-16" y="38" font-size="3" fill="#006400">P2(-1,1)</text>

  <line x1="-40" y1="50" x2="-20" y2="40" stroke="#1E90FF" stroke-width="0.3" stroke-dasharray="1.5"/>
  <line x1="40" y1="50" x2="-20" y2="40" stroke="#1E90FF" stroke-width="0.3" stroke-dasharray="1.5"/>
  <line x1="0" y1="10" x2="-20" y2="40" stroke="#1E90FF" stroke-width="0.3" stroke-dasharray="1.5"/>
  <circle cx="-20" cy="40" r="1" fill="#1E90FF" />
  <text x="-32" y="38" font-size="3" fill="#00008B">P3(-2,1)</text>
</svg>